{"title":"The Maze Runner (2014) Dual Audio BDRip 720p MKV (H.264)","uid":11602457,"size":5440453991,"categoryP":"video","categoryS":"hd___movies","magnet":"?xt=urn:btih:4281a842c4dd43a240c74b763906908cb02d21a0&amp;dn=The+Maze+Runner+%282014%29+Dual+Audio+BDRip+720p+MKV+%28H.264%29&amp;tr=udp%3A%2F%2Ftracker.openbittorrent.com%3A80&amp;tr=udp%3A%2F%2Fopen.demonii.com%3A1337&amp;tr=udp%3A%2F%2Ftracker.coppersurfer.tk%3A6969&amp;tr=udp%3A%2F%2Fexodus.desync.com%3A6969","seeders":53,"leechers":0,"uploader":"darkj6","files":-1,"time":1417373951,"description":" ______   _______  ______    ___   _      ___  --------|\n|      | |   _   ||    _ |  |   | | |    |   ||   |----|    \n|  _    ||  |_|  ||   | ||  |   |_| |    |   ||   |___ \n| | |   ||       ||   |_||_ |      _|    |   ||    _  |\n| |_|   ||       ||    __  ||     |_  ___|   ||   | | |\n|       ||   _   ||   |  | ||    _  ||       ||   |_| |\n|______| |__| |__||___|  |_||___| |_||_______||_______|\n                                                               &lt;a href=&quot;\nhttps://thepiratebay.se/user/darkj6/&quot; rel=&quot;nofollow&quot; target=&quot;_NEW&quot;&gt;\nhttps://thepiratebay.se/user/darkj6/&lt;/a&gt;\n\nJoin ThePirateBay Forum:\n                                                                                        &lt;a href=&quot;\nhttps://forum.suprbay.org/member.php?action=register&amp;referrer=908&quot; rel=&quot;nofollow&quot; target=&quot;_NEW&quot;&gt;\nhttps://forum.suprbay.org/member.php?action=register&amp;referrer=908&lt;/a&gt;\n\n &lt;a href=&quot;\nhttp://www.imdb.com/title/tt1790864/&quot; rel=&quot;nofollow&quot; target=&quot;_NEW&quot;&gt;\nhttp://www.imdb.com/title/tt1790864/&lt;/a&gt;\n\nFormat : MKV (H.264) \n\nQuality : BDRip 720p \n\nVideo : MPEG-4 AVC, 5400 kbit / s, 1280x536 \n\nAudio : Russian (AC3, 2 ch, 384 kbit / s)\n\n        English (AC3, 6 ch, 640 kbit / s) \n\nOptional : Keep the original chapter is\n\nGeneral\nUnique ID : 249175538579444219785021005688508887634 (0xBB75768EC36F3FC38396EC4E2A59B252)\nComplete name : L:The.Maze.Runner.2014.720p.BluRay.x264.RGBM.mkv\nFormat : Matroska\nFormat version : Version 4 / Version 2\nFile size : 5.09 GiB\nDuration : 1h 58mn\nOverall bit rate : 6 158 Kbps\nEncoded date : UTC 2014-11-30 16:14:12\nWriting application : mkvmerge v7.3.0 ('Nouages') 64bit built on Oct 22 2014 18:53:34\nWriting library : libebml v1.3.0 + libmatroska v1.4.1\nDURATION : 01:58:17.472000000\nNUMBER_OF_FRAMES : 221796\nNUMBER_OF_BYTES : 567797760\n_STATISTICS_WRITING_APP : mkvmerge v7.3.0 ('Nouages') 64bit built on Oct 22 2014 18:53:34\n_STATISTICS_WRITING_DATE_UTC : 2014-11-30 16:14:12\n_STATISTICS_TAGS : BPS DURATION NUMBER_OF_FRAMES NUMBER_OF_BYTES\n\nVideo\nID : 1\nFormat : AVC\nFormat/Info : Advanced Video Codec\nFormat profile : &lt;a class=&quot;__cf_email__&quot; href=&quot;/cdn-cgi/l/email-protection&quot; data-cfemail=&quot;064e6f616e464a322837&quot;&gt;[email&amp;#160;protected]&lt;/a&gt;&lt;script cf-hash='f9e31' type=&quot;text/javascript&quot;&gt;\n/* &lt;![CDATA[ */!function(){try{var t=&quot;currentScript&quot;in document?document.currentScript:function(){for(var t=document.getElementsByTagName(&quot;script&quot;),e=t.length;e--;)if(t[e].getAttribute(&quot;cf-hash&quot;))return t[e]}();if(t&amp;&amp;t.previousSibling){var e,r,n,i,c=t.previousSibling,a=c.getAttribute(&quot;data-cfemail&quot;);if(a){for(e=&quot;&quot;,r=parseInt(a.substr(0,2),16),n=2;a.length-n;n+=2)i=parseInt(a.substr(n,2),16)^r,e+=String.fromCharCode(i);e=document.createTextNode(e),c.parentNode.replaceChild(e,c)}}}catch(u){}}();/* ]]&gt; */&lt;/script&gt;\nFormat settings, CABAC : Yes\nFormat settings, ReFrames : 5 frames\nCodec ID : V_MPEG4/ISO/AVC\nDuration : 1h 58mn\nBit rate : 5 012 Kbps\nNominal bit rate : 5 382 Kbps\nWidth : 1 280 pixels\nHeight : 536 pixels\nDisplay aspect ratio : 2.40:1\nFrame rate mode : Constant\nFrame rate : 23.976 fps\nColor space : YUV\nChroma subsampling : 4:2:0\nBit depth : 8 bits\nScan type : Progressive\nBits/(Pixel*Frame) : 0.305\nStream size : 4.14 GiB (81%)\nWriting library : x264 core 142 r2479 dd79a61\nEncoding settings : cabac=1 / ref=5 / deblock=1:0:0 / analyse=0x3:0x133 / me=umh / subme=7 / psy=1 / psy_rd=1.00:0.00 / mixed_ref=1 / me_range=16 / chroma_me=1 / trellis=1 / 8x8dct=1 / cqm=0 / deadzone=21,11 / fast_pskip=0 / chroma_qp_offset=-2 / threads=18 / lookahead_threads=3 / sliced_threads=0 / nr=0 / decimate=1 / interlaced=0 / bluray_compat=0 / constrained_intra=0 / bframes=3 / b_pyramid=2 / b_adapt=1 / b_bias=0 / direct=1 / weightb=1 / open_gop=0 / weightp=2 / keyint=250 / keyint_min=23 / scenecut=40 / intra_refresh=0 / rc_lookahead=40 / rc=2pass / mbtree=1 / bitrate=5382 / ratetol=1.0 / qcomp=0.60 / qpmin=0 / qpmax=69 / qpstep=4 / cplxblur=20.0 / qblur=0.5 / ip_ratio=1.40 / aq=1:1.00\nLanguage : English\nDefault : Yes\nForced : No\nDURATION : 01:53:26.728000000\nNUMBER_OF_FRAMES : 163198\nNUMBER_OF_BYTES : 4567320078\n_STATISTICS_WRITING_APP : mkvmerge v7.3.0 ('Nouages') 64bit built on Oct 22 2014 18:53:34\n_STATISTICS_WRITING_DATE_UTC : 2014-11-30 16:14:12\n_STATISTICS_TAGS : BPS DURATION NUMBER_OF_FRAMES NUMBER_OF_BYTES\n\nAudio #1\nID : 2\nFormat : AC-3\nFormat/Info : Audio Coding 3\nMode extension : CM (complete main)\nFormat settings, Endianness : Big\nCodec ID : A_AC3\nDuration : 1h 58mn\nBit rate mode : Constant\nBit rate : 384 Kbps\nChannel(s) : 2 channels\nChannel positions : Front: L R\nSampling rate : 48.0 KHz\nBit depth : 16 bits\nCompression mode : Lossy\nDelay relative to video : 8ms\nStream size : 325 MiB (6%)\nLanguage : Russian\nDefault : Yes\nForced : No\n\nAudio #2\nID : 3\nFormat : AC-3\nFormat/Info : Audio Coding 3\nMode extension : CM (complete main)\nFormat settings, Endianness : Big\nCodec ID : A_AC3\nDuration : 1h 58mn\nBit rate mode : Constant\nBit rate : 640 Kbps\nChannel(s) : 6 channels\nChannel positions : Front: L C R, Side: L R, LFE\nSampling rate : 48.0 KHz\nBit depth : 16 bits\nCompression mode : Lossy\nStream size : 541 MiB (10%)\nLanguage : English\nDefault : No\nForced : No\n\nMenu\n00:00:00.000 : en:00:00:00.000\n00:03:12.651 : en:00:03:12.651\n00:07:15.977 : en:00:07:15.977\n00:10:25.250 : en:00:10:25.250\n00:14:15.563 : en:00:14:15.563\n00:17:21.249 : en:00:17:21.249\n00:19:33.339 : en:00:19:33.339\n00:23:21.025 : en:00:23:21.025\n00:24:36.392 : en:00:24:36.392\n00:28:13.108 : en:00:28:13.108\n00:31:26.009 : en:00:31:26.009\n00:34:12.050 : en:00:34:12.050\n00:37:11.813 : en:00:37:11.813\n00:41:00.875 : en:00:41:00.875\n00:42:16.617 : en:00:42:16.617\n00:45:47.453 : en:00:45:47.453\n00:48:31.826 : en:00:48:31.826\n00:52:57.800 : en:00:52:57.800\n00:55:21.777 : en:00:55:21.777\n00:57:58.809 : en:00:57:58.809\n00:59:31.151 : en:00:59:31.151\n01:01:35.275 : en:01:01:35.275\n01:05:13.910 : en:01:05:13.910\n01:08:42.410 : en:01:08:42.410\n01:12:14.247 : en:01:12:14.247\n01:14:22.833 : en:01:14:22.833\n01:20:27.823 : en:01:20:27.823\n01:22:25.649 : en:01:22:25.649\n01:25:38.175 : en:01:25:38.175\n01:29:41.585 : en:01:29:41.585\n01:33:49.457 : en:01:33:49.457\n01:36:43.256 : en:01:36:43.256\n01:39:33.426 : en:01:39:33.426\n01:43:05.596 : en:01:43:05.596\n01:45:08.219 : en:01:45:08.219\n01:46:12.658 : en:01:46:12.658\n &lt;a href=&quot;\nhttp://rupix.org/viewer.php?file=51064220837815384560.jpg&quot; rel=&quot;nofollow&quot; target=&quot;_NEW&quot;&gt;\nhttp://rupix.org/viewer.php?file=51064220837815384560.jpg&lt;/a&gt;\n &lt;a href=&quot;\nhttp://rupix.org/viewer.php?file=51769907869986750756.jpg&quot; rel=&quot;nofollow&quot; target=&quot;_NEW&quot;&gt;\nhttp://rupix.org/viewer.php?file=51769907869986750756.jpg&lt;/a&gt;\n &lt;a href=&quot;\nhttp://rupix.org/viewer.php?file=35269174984942862399.jpg&quot; rel=&quot;nofollow&quot; target=&quot;_NEW&quot;&gt;\nhttp://rupix.org/viewer.php?file=35269174984942862399.jpg&lt;/a&gt;","torrent":{"xt":"urn:btih:4281a842c4dd43a240c74b763906908cb02d21a0","amp;dn":"The+Maze+Runner+%282014%29+Dual+Audio+BDRip+720p+MKV+%28H.264%29","amp;tr":["udp%3A%2F%2Ftracker.openbittorrent.com%3A80","udp%3A%2F%2Fopen.demonii.com%3A1337","udp%3A%2F%2Ftracker.coppersurfer.tk%3A6969","udp%3A%2F%2Fexodus.desync.com%3A6969"],"infoHash":"4281a842c4dd43a240c74b763906908cb02d21a0","infoHashBuffer":{"type":"Buffer","data":[66,129,168,66,196,221,67,162,64,199,75,118,57,6,144,140,176,45,33,160]},"announce":[],"urlList":[]}}